<svg width="60" height="42" viewBox="0 0 60 42" fill="none" xmlns="http://www.w3.org/2000/svg">
<path d="M13.9462 36.814C2.64764 37.9458 -3.58026 8.50536 4.24077 1.97723C8.30032 -1.41123 12.3513 3.47733 12.3513 3.47733C12.3513 3.47733 10.4669 4.07119 9.85796 5.45242C8.70262 8.07307 22.7839 4.27444 15.8434 3.25564M13.9462 36.814C25.2447 35.6823 29.4321 35.7412 39.3057 36.814M13.9462 36.814C13.9462 36.814 11.3128 37.9164 9.85796 40.5808M39.3057 36.814C51.7618 38.1674 55.0042 15.3895 58.9233 18.121C62.8423 20.8525 30.6127 24.6594 5.00904 18.121M39.3057 36.814C39.3057 36.814 42.9798 38.2281 44.4988 40.5808" stroke="white" stroke-width="1.5" stroke-linecap="round"/>
<path d="M51.5467 11.1877C51.5467 11.1877 49.6149 11.959 49.7215 13.2155C49.7885 14.0052 49.9313 13.8486 50.01 14.6305C50.1379 15.9013 47.8388 16.9611 47.8388 16.9611" stroke="white" stroke-width="1.5" stroke-linecap="round"/>
<path d="M43.9017 6.26725C43.9017 6.26725 41.3191 7.77034 41.7374 9.53284C42.0002 10.6405 42.17 10.388 42.448 11.4821C42.8997 13.2605 39.8561 15.2509 39.8561 15.2509" stroke="white" stroke-width="1.5" stroke-linecap="round"/>
</svg>
