<svg width="48" height="48" viewBox="0 0 48 48" fill="none" xmlns="http://www.w3.org/2000/svg">
<path d="M24.1534 1C24.1534 1 24.1534 3.75714 24.1534 5.90885M24.1534 46.6578C24.1534 46.6578 24.1534 43.9404 24.1534 41.749M24.1534 5.90885C21.6201 3.53858 19.9473 1 19.9473 1M24.1534 5.90885C27.0011 3.53858 28.3595 1 28.3595 1M24.1534 5.90885C24.1534 19.3564 24.1534 28.3014 24.1534 41.749M24.1534 41.749C26.56 42.7936 28.3595 46.6578 28.3595 46.6578M24.1534 41.749C21.0908 42.8818 19.9473 46.6578 19.9473 46.6578" stroke="#BC9548" stroke-width="1.5" stroke-linecap="round"/>
<path d="M46.9824 23.8289C46.9824 23.8289 44.2253 23.8289 42.0736 23.8289M1.32458 23.8289C1.32458 23.8289 4.04198 23.8289 6.23343 23.8289M42.0736 23.8289C44.4438 21.2956 46.9824 19.6228 46.9824 19.6228M42.0736 23.8289C44.4438 26.6766 46.9824 28.0351 46.9824 28.0351M42.0736 23.8289C28.626 23.8289 19.681 23.8289 6.23343 23.8289M6.23343 23.8289C5.18886 26.2356 1.32458 28.0351 1.32458 28.0351M6.23343 23.8289C5.10064 20.7663 1.32458 19.6228 1.32458 19.6228" stroke="#BC9548" stroke-width="1.5" stroke-linecap="round"/>
<path d="M40.2945 7.6861C40.2945 7.6861 38.3449 9.63569 36.8234 11.1572M8.00953 39.9711C8.00953 39.9711 9.93102 38.0496 11.4806 36.5M36.8234 11.1572C36.7081 7.68983 37.3203 4.71191 37.3203 4.71191M36.8234 11.1572C40.5131 11.4948 43.2687 10.6603 43.2687 10.6603M36.8234 11.1572C27.3145 20.6661 20.9895 26.9911 11.4806 36.5M11.4806 36.5C12.4437 38.9404 10.9837 42.9453 10.9837 42.9453M11.4806 36.5C8.51403 35.1354 5.03535 36.9969 5.03535 36.9969" stroke="#BC9548" stroke-width="1.5" stroke-linecap="round"/>
<path d="M40.2953 39.9711C40.2953 39.9711 38.3458 38.0215 36.8243 36.5001M8.01038 7.68616C8.01038 7.68616 9.93187 9.60765 11.4815 11.1572M36.8243 36.5001C40.2916 36.3848 43.2695 36.9969 43.2695 36.9969M36.8243 36.5001C36.4867 40.1897 37.3212 42.9453 37.3212 42.9453M36.8243 36.5001C27.3154 26.9912 20.9903 20.6661 11.4815 11.1572M11.4815 11.1572C9.04109 12.1204 5.0362 10.6603 5.0362 10.6603M11.4815 11.1572C12.846 8.19066 10.9846 4.71198 10.9846 4.71198" stroke="#BC9548" stroke-width="1.5" stroke-linecap="round"/>
</svg>
