<svg width="35" height="48" viewBox="0 0 35 48" fill="none" xmlns="http://www.w3.org/2000/svg">
<path d="M15.9749 0.922913C22.0902 0.922913 26.5524 2.21109 29.3615 4.78745C32.1707 7.34269 33.5752 10.8693 33.5752 15.3674C33.5752 17.3947 33.2619 19.3375 32.6352 21.1959C32.0086 23.0331 30.9822 24.6698 29.556 26.1058C28.1514 27.5418 26.2715 28.6821 23.9161 29.5268C21.5607 30.3504 18.6544 30.7622 15.1969 30.7622H10.886V46.5807H0.837826L0.837891 0.922913H15.9749ZM15.4563 8.96876H10.886V22.7164H14.1921C16.0721 22.7164 17.7036 22.4735 19.0865 21.9878C20.4695 21.5021 21.5391 20.7419 22.2954 19.7071C23.0517 18.6723 23.4299 17.3419 23.4299 15.7159C23.4299 13.4351 22.7816 11.7457 21.4851 10.6476C20.1886 9.52838 18.179 8.96876 15.4563 8.96876Z" stroke="white" stroke-width="1.5"/>
</svg>
