<svg width="38" height="49" viewBox="0 0 38 49" fill="none" xmlns="http://www.w3.org/2000/svg">
<path d="M4.53407 12.0476C4.53407 12.0476 4.78467 12.0476 9.51786 12.0476M28.4215 12.0476H30.2092M33.6826 12.0476H31.8948M6.20701 7.77823C6.20701 7.77823 4.53407 7.45072 4.53407 5.61194C4.53407 3.25048 7.51332 3.48233 7.51332 3.48233M7.51332 3.48233H20.1556M7.51332 3.48233C7.51332 3.48233 6.41255 3.48233 6.41255 2.26476C6.41255 1.04718 7.51332 1.04718 7.51332 1.04718H20.1556C20.1556 1.04718 21.347 1.04718 21.347 2.26476C21.347 3.48233 20.1556 3.48233 20.1556 3.48233M20.1556 3.48233H23.5829C23.5829 3.48233 27.3585 3.48233 26.0987 7.48123M1.46927 47.5806L1.46875 7.77823H36.5296L36.5297 47.5806H1.46927Z" stroke="white" stroke-width="1.5" stroke-linecap="round"/>
<path d="M30.2643 21.978C31.5757 24.0666 32.334 26.5376 32.334 29.1858C32.334 31.8339 31.5757 34.305 30.2643 36.3936M30.2643 21.978C30.2643 21.978 27.172 24.3571 27.172 29.1858C27.172 35.3903 30.2643 36.3936 30.2643 36.3936M30.2643 21.978C29.8086 21.2522 29.2861 20.5725 28.7054 19.9477M30.2643 36.3936C27.8634 40.2176 23.6086 42.7597 18.7601 42.7597C11.2634 42.7597 5.18618 36.6824 5.18618 29.1858C5.18618 21.6891 11.2634 15.6119 18.7601 15.6119C21.6136 15.6119 24.2615 16.4924 26.4468 17.9965M26.4468 17.9965C27.2699 18.563 28.0273 19.218 28.7054 19.9477M26.4468 17.9965L28.7054 19.9477" stroke="white" stroke-width="1.5"/>
</svg>
