<svg width="44" height="50" viewBox="0 0 44 50" fill="none" xmlns="http://www.w3.org/2000/svg">
<path d="M28.177 38.9551C23.7197 40.6885 14.155 40.2957 11.4837 35.7489C7.34181 28.6991 8.13075 19.6264 8.13075 19.6264C8.13075 19.6264 14.0308 22.3876 22.0741 22.3876C37.6465 22.3876 39.1493 16.8694 26.2051 17.2579M31.7091 25.2605C33.3538 23.9585 36.7401 23.0072 36.7401 26.3681C36.7401 29.7289 34.4386 39.0473 31.7091 37.3048C26.8611 34.21 42.8367 34.6528 42.8367 39.8112C42.8367 44.9696 32.7626 48.3912 21.1534 48.3912C9.54413 48.3912 1.16214 44.3237 1.16211 38.9551C1.16208 33.5865 15.7075 32.9941 15.7075 32.9941M12.509 17.2579C11.4837 11.1707 20.8488 12.1535 22.0741 15.2679C23.2995 18.3822 16.8405 14.6983 17.5732 9.24344C18.0672 5.56586 23.2995 3.79585 23.2995 6.84412C23.2995 8.24419 19.1815 5.55178 21.1534 1.12726" stroke="#bc9548" stroke-width="1.5" stroke-linecap="round"/>
</svg>
