<svg width="1920" height="1285" viewBox="0 0 1920 1285" fill="none" xmlns="http://www.w3.org/2000/svg">
<g filter="url(#filter0_f_61_9164)">
<path d="M43.1797 1173.85C44.5056 1174.09 45.9032 1174.34 47.5158 1174.67C74.6073 1170.5 80.7352 1172.6 89.6582 1174.67C106.393 1174.52 104.673 1181.37 123.057 1176.63C154.018 1170.21 133.198 1167.24 150.041 1173.58C171.184 1166.51 181.397 1176.51 190.248 1171.15C192.792 1176.67 211.355 1170.82 221.066 1166.28C238.662 1171.72 249.376 1158.06 260.485 1162.77C274.389 1167.24 288.688 1155.69 302.054 1163.03C315.421 1166.28 323.556 1164.75 336.958 1164.75C348.748 1165.04 360.538 1164.08 372.328 1168.92C384.117 1169.66 395.907 1171.99 407.697 1173.05C421.673 1180.23 436.043 1183.25 450.699 1175.59C459.049 1172.4 465.499 1180.02 475.175 1170.03C482.055 1158.49 488.972 1171.58 495.888 1169.45C507.821 1169.92 519.79 1168.14 531.723 1166.73C549.247 1163.01 561.897 1164.77 579.062 1163.89C600.061 1162.38 614.216 1163.26 635.753 1161.23C660.838 1160.27 672.664 1164.01 692.158 1169.49C701.69 1172.77 713.05 1172.95 725.593 1175.16C727.635 1160.23 725.342 1178.08 730.359 1160.72C742.005 1167.45 754.082 1161.03 766.194 1161.64C778.306 1166.37 790.49 1164.3 802.28 1161.36C805.864 1168.53 816.614 1155.71 821.201 1161.54C832.382 1158.39 842.703 1169.66 853.095 1156.68C863.523 1149.66 874.13 1154.96 885.92 1151.71C891.833 1155.39 897.065 1146.76 902.87 1151.22C924.371 1154.06 935.516 1151.99 953.362 1155.14C965.905 1162.97 978.984 1154.34 992.244 1162.97C1005.47 1167.53 1018.87 1180.45 1032.06 1169.86C1038.11 1167.57 1042.02 1165.94 1048.11 1173.77C1064.31 1176.08 1084.3 1175.34 1100.86 1175.28C1115.59 1178.08 1110.11 1181.27 1127.06 1178.35C1147.02 1176.94 1166.98 1192.06 1186.9 1178.35C1201.24 1182.46 1216.82 1175.03 1230.44 1178.82C1247.1 1172.6 1263.77 1183.17 1280.61 1178.53C1297.16 1180.39 1314.23 1180.39 1330.78 1178.53C1344.08 1182.15 1354.18 1183.78 1365.29 1175.52C1370.31 1175.98 1375.57 1168.21 1381.27 1171.99C1392.78 1171.4 1409.15 1171.64 1421.41 1170.92C1439.97 1163.09 1458.96 1154.06 1477.35 1168.72C1487.7 1176.14 1485.7 1164.93 1493.37 1165.9C1502.86 1158.07 1509.49 1164.34 1520.46 1161.52C1534.79 1178.02 1550.16 1155.53 1564.86 1156.43C1585.89 1158.88 1608.22 1165.86 1628.29 1158.13C1647.96 1165.14 1669.42 1165.96 1690.21 1165.08C1700.35 1156.27 1705.26 1167.04 1715.08 1166.75C1725.83 1165.92 1734.82 1165.34 1746.61 1171.46C1769.12 1174.4 1785.39 1175.71 1809.97 1178.51C1829.18 1172.13 1848.42 1178.51 1867.67 1178.51C1882.97 1183.97 1898.81 1183.87 1912.82 1182.42V106.343L1909.45 106.852C1899.34 104.738 1881.07 104.464 1861.29 106.852C1854.98 102.507 1856.45 109.827 1838.78 106.735C1814.7 106.598 1816.24 105.737 1821.47 111.55C1825.34 111.707 1818.75 114.134 1813.48 115.073C1780.55 110.865 1775.03 113.742 1776.64 115.465C1786.1 123.177 1757.47 112.705 1739.73 115.465C1718.91 115.993 1709.85 114.545 1695.41 115.602C1677.49 112.548 1669.03 114.447 1656.2 111.1C1654.19 114.036 1651.76 110.493 1649.03 107.068C1644.73 105.991 1635.6 106.754 1631.12 106.872C1613.49 113.018 1607.21 112.744 1591.02 114.701C1576.68 119.673 1561.81 116.424 1547.66 115.993C1534.22 115.054 1527.66 117.266 1513.04 118.616C1500.89 116.072 1488.78 122.825 1476.63 118.616C1460 124.997 1438.68 130.615 1422.88 118.323C1415.07 121.65 1410.73 115.563 1402.2 115.132C1396.04 113.84 1388.19 111.472 1381.81 115.249C1371.06 119.164 1360.31 121.787 1349.56 115.249C1332.86 114.036 1315.98 112 1299.39 115.249C1283.98 117.207 1271.83 117.207 1256.85 118.695C1240.73 115.739 1223.1 121.552 1207.76 116.992C1192.38 116.032 1174.61 121.572 1161.96 113.742C1151.21 107.694 1141.82 109.045 1129.13 105.58C1122.65 100.452 1115.48 102.585 1108.89 103.623C1100.72 97.8873 1095.27 103.74 1086.6 101.548C1074.56 100.076 1062.17 99.6857 1049.9 100.393C1047.61 100.393 1044.03 99.4141 1039.15 103.603C1034.14 101.176 1029.12 103.857 1024.1 104.954C1011.74 103.466 999.876 106.343 987.621 105.149C970.384 102.977 954.186 111.53 936.09 106.872C918.889 108.301 901.652 107.361 884.451 106.872C868.325 107.244 851.411 111.609 835.464 106.872C823.71 116.933 813.963 99.5903 802.71 103.329C781.997 96.2235 757.271 116.032 737.132 104.738C723.693 107.89 710.542 105.971 697.462 104.875C684.346 107.988 671.302 98.5529 658.043 103.329C647.794 98.2984 637.043 101.137 626.794 103.329C615.65 102.487 589.777 108.203 587.053 110.239C592.464 115.21 608.088 121.141 610.489 120.691C589.812 128.521 566.77 119.184 546.487 121.278C534.726 124.78 521.354 126.337 508 125.761C495.1 122.237 482.127 124.097 468.868 128.736C457.867 117.794 448.764 136.37 438.515 125.859C428.732 132.631 414.577 118.714 403.683 123.294C396.516 124.214 395.011 117.305 388.812 125.937C377.739 132.905 371.109 133.336 362.544 125.213C345.415 128.462 340.506 135.841 325.562 124.899C314.812 130.967 309.616 131.731 299.188 123.471C283.635 116.522 269.086 132.729 258.837 122.492C237.336 110.199 225.152 123.51 221.21 115.015C201.608 112.548 215.01 114.036 192.541 114.838C188.241 109.495 169.033 110.924 155.954 111.413C151.402 116.483 133.449 115.7 122.017 110.023C114.42 110.591 89.479 108.986 87.4722 110.18C58.5172 112.216 65.0034 116.718 61.0974 116.737C57.5138 119.536 54.7545 117.912 43.1797 118.088V1173.85Z" fill="#3E1B08"/>
</g>
<defs>
<filter id="filter0_f_61_9164" x="-56.8203" y="0.0505371" width="2069.64" height="1284.09" filterUnits="userSpaceOnUse" color-interpolation-filters="sRGB">
<feFlood flood-opacity="0" result="BackgroundImageFix"/>
<feBlend mode="normal" in="SourceGraphic" in2="BackgroundImageFix" result="shape"/>
<feGaussianBlur stdDeviation="50" result="effect1_foregroundBlur_61_9164"/>
</filter>
</defs>
</svg>
