<svg width="376" height="422" viewBox="0 0 376 422" fill="none" xmlns="http://www.w3.org/2000/svg">
<path opacity="0.05" d="M375.456 187.48C375.452 154.096 366.443 121.326 349.368 92.5883C332.293 63.8509 307.778 40.2003 278.381 24.1047C248.985 8.00907 215.786 0.0586397 182.248 1.0831C148.71 2.10756 116.063 12.0694 87.7149 29.9289C59.3666 47.7884 36.3561 72.8907 21.0849 102.616C5.81379 132.342 -1.15813 165.6 0.896871 198.921C2.95187 232.241 13.9584 264.403 32.7678 292.047C51.5771 319.692 77.4997 341.807 107.83 356.085C104.55 348.223 102.357 339.955 101.312 331.507C74.2399 315.401 52.2578 292.055 37.8691 264.128C23.4804 236.201 17.2634 204.815 19.9262 173.544C22.5889 142.274 34.0244 112.375 52.9304 87.2545C71.8363 62.1336 97.4527 42.7997 126.862 31.4547C124.955 39.5924 124.95 48.0571 126.849 56.1969C128.747 64.3367 132.498 71.9345 137.812 78.4049C117.819 90.6003 100.773 107.029 87.8851 126.522C86.998 127.829 86.485 129.351 86.4012 130.926C86.3173 132.501 86.6659 134.069 87.4093 135.462C88.1528 136.854 89.2633 138.02 90.6216 138.833C91.9799 139.645 93.535 140.075 95.12 140.075C125.231 134.043 156.413 136.103 185.458 146.042C145.569 171.592 104.571 216.856 88.7324 260.823C76.0877 225.221 75.6966 201.876 82.2145 188.193C91.1441 170.813 113.826 172.694 129.991 176.715C131.826 177.455 133.869 177.511 135.743 176.872C137.616 176.233 139.194 174.941 140.186 173.236C141.178 171.53 141.518 169.525 141.141 167.59C140.765 165.656 139.698 163.922 138.138 162.708C113.24 155.509 81.9538 154.472 68.1358 180.995C57.5768 201.357 59.9233 236.44 83.0619 290.004C89.5798 304.466 96.554 304.012 98.2487 287.735C101.899 251.614 132.403 211.927 158.279 187.285C175.564 195.705 191.76 206.179 206.511 218.477C194.759 227.187 184.141 237.316 174.899 248.631C156.285 272.112 141.524 298.376 131.164 326.449C121.518 295.517 111.089 237.477 161.798 245.519C178.158 248.048 178.615 232.549 165.97 230.214C90.362 215.688 105.092 304.79 123.212 351.934C123.891 353.374 124.944 354.607 126.261 355.508C127.579 356.408 129.114 356.943 130.708 357.057C132.319 357.183 133.933 356.862 135.372 356.129C136.81 355.396 138.016 354.281 138.855 352.907C149.078 317.369 166.464 284.273 189.956 255.635C331.134 331.183 193.541 474.822 183.438 362.829C181.808 345.709 189.043 327.357 200.71 308.486C201.522 306.724 201.656 304.727 201.085 302.873C200.515 301.02 199.281 299.439 197.616 298.431C195.952 297.424 193.974 297.059 192.057 297.406C190.141 297.753 188.419 298.788 187.218 300.315C174.182 321.715 165.774 343.245 167.665 364.32C180.7 510.942 368.742 340.326 201.167 243.832C206.638 238.444 212.643 233.621 219.091 229.436C244.83 252.291 265.535 280.199 279.903 311.404C288.637 331.442 298.023 330.34 304.476 309.135C318.098 264.778 299.001 198.439 244.706 203.238C228.086 204.729 231.67 220.163 246.336 219.061C286.225 215.948 298.479 266.27 290.984 297.916C267.258 248.761 219.286 201.681 170.989 176.39C174.182 173.861 202.079 152.721 204.1 153.629C241.639 170.954 274.986 196.125 301.869 227.426C320.64 248.242 329.83 239.617 326.832 213.613C323.964 191.306 312.754 153.629 297.893 139.427C278.339 120.816 252.658 119.454 228.216 126.457C212.117 130.997 222.937 143.772 236.885 140.529C254.744 136.379 273.059 137.741 286.877 150.97C298.74 162.318 308.061 193.899 310.798 214.067C260.349 159.076 188.587 114.914 111.089 122.242C121.845 108.971 135.137 97.9513 150.196 89.8181C168.073 100.724 188.063 107.751 208.858 110.44C236.233 114.461 260.545 110.051 263.413 100.453C269.931 77.8861 197.06 60.7662 171.706 65.6298C170.237 67.1552 169.348 69.1426 169.194 71.2496C169.039 73.3566 169.628 75.4512 170.858 77.1728C172.274 79.0432 174.345 80.3161 176.659 80.7394C178.419 80.4151 180.309 80.2207 182.134 80.0261C196.734 78.5995 249.269 92.6715 248.291 95.9787C247.509 98.2484 230.954 97.7297 211.074 94.8115C196.439 92.8409 182.182 88.7099 168.773 82.5551C163.023 79.1466 157.453 75.4454 152.087 71.4661L149.871 69.4558C141.332 60.5716 138.334 44.4245 144.656 26.1373C178.562 17.2463 214.412 19.1055 247.206 31.4557C279.999 43.806 308.1 66.0313 327.59 95.0318C347.08 124.032 356.986 158.362 355.927 193.232C354.868 228.102 342.897 261.773 321.683 289.55C321.714 300.992 319.955 312.368 316.469 323.271C334.903 305.892 349.584 284.956 359.614 261.742C369.644 238.529 374.812 213.525 374.804 188.258L375.456 187.48Z" fill="url(#paint0_linear_36_89)"/>
<defs>
<linearGradient id="paint0_linear_36_89" x1="156.887" y1="421.46" x2="156.887" y2="0.995237" gradientUnits="userSpaceOnUse">
<stop stop-color="white" stop-opacity="0"/>
<stop offset="1" stop-color="white"/>
</linearGradient>
</defs>
</svg>
