<svg width="41" height="46" viewBox="0 0 41 46" fill="none" xmlns="http://www.w3.org/2000/svg">
<path d="M40.7438 20.406C40.7435 16.7595 39.7644 13.1799 37.9087 10.0409C36.053 6.90192 33.3888 4.31854 30.1942 2.5604C26.9995 0.80226 23.3915 -0.0661728 19.7468 0.0457298C16.102 0.157632 12.5541 1.24578 9.47329 3.19659C6.39251 5.1474 3.89181 7.88934 2.23221 11.1363C0.572599 14.3832 -0.18508 18.0161 0.0382484 21.6557C0.261577 25.2954 1.45773 28.8084 3.50185 31.828C5.54598 34.8477 8.36314 37.2634 11.6593 38.8229C11.3029 37.9642 11.0646 37.0611 10.951 36.1383C8.00888 34.379 5.61995 31.8289 4.05624 28.7784C2.49253 25.7279 1.8169 22.2995 2.10628 18.8838C2.39566 15.4681 3.63842 12.2023 5.69304 9.45831C7.74766 6.71433 10.5316 4.60247 13.7277 3.36325C13.5204 4.25214 13.5199 5.17675 13.7262 6.06586C13.9325 6.95498 14.3401 7.78489 14.9177 8.49166C12.7449 9.82378 10.8924 11.6183 9.49179 13.7476C9.39538 13.8903 9.33963 14.0566 9.33052 14.2286C9.32141 14.4006 9.35928 14.5719 9.44008 14.724C9.52088 14.8762 9.64156 15.0035 9.78918 15.0922C9.9368 15.181 10.1058 15.2279 10.2781 15.228C13.5504 14.5691 16.9392 14.794 20.0957 15.8797C15.7606 18.6705 11.3051 23.6148 9.58387 28.4173C8.20969 24.5285 8.16719 21.9785 8.87553 20.4839C9.84596 18.5855 12.311 18.791 14.0677 19.2301C14.2671 19.3111 14.4891 19.3172 14.6927 19.2473C14.8964 19.1775 15.0679 19.0364 15.1757 18.8501C15.2835 18.6638 15.3203 18.4448 15.2794 18.2335C15.2385 18.0222 15.1226 17.8327 14.9531 17.7001C12.2472 16.9139 8.8472 16.8005 7.34551 19.6976C6.198 21.9218 6.453 25.754 8.96762 31.6049C9.67596 33.1845 10.4339 33.1349 10.6181 31.357C11.0147 27.4115 14.3298 23.0764 17.1419 20.3847C19.0204 21.3045 20.7805 22.4485 22.3836 23.7919C21.1065 24.7433 19.9525 25.8497 18.9482 27.0856C16.9253 29.6505 15.3211 32.5194 14.1952 35.5858C13.1468 32.207 12.0135 25.8673 17.5244 26.7456C19.3023 27.0219 19.3519 25.329 17.9777 25.074C9.76096 23.4873 11.3618 33.2199 13.331 38.3695C13.4048 38.5268 13.5192 38.6615 13.6624 38.7599C13.8055 38.8582 13.9723 38.9166 14.1456 38.9291C14.3207 38.9429 14.4961 38.9078 14.6525 38.8277C14.8088 38.7477 14.9398 38.6259 15.031 38.4758C16.142 34.5939 18.0315 30.9788 20.5844 27.8507C35.9271 36.1028 20.974 51.7926 19.8761 39.5595C19.699 37.6895 20.4853 35.6849 21.7532 33.6236C21.8414 33.4312 21.8559 33.213 21.7939 33.0106C21.732 32.8081 21.5978 32.6355 21.4169 32.5254C21.2361 32.4153 21.0211 32.3754 20.8128 32.4133C20.6045 32.4513 20.4174 32.5644 20.2869 32.7311C18.8702 35.0687 17.9565 37.4204 18.1619 39.7225C19.5786 55.7381 40.0143 37.1016 21.8028 26.5615C22.3974 25.9729 23.05 25.446 23.7507 24.9889C26.5479 27.4854 28.7981 30.5338 30.3596 33.9424C31.3087 36.1312 32.3287 36.0108 33.03 33.6945C34.5104 28.8494 32.435 21.6031 26.5345 22.1273C24.7282 22.2902 25.1178 23.976 26.7116 23.8556C31.0466 23.5156 32.3783 29.0123 31.5637 32.4691C28.9854 27.0998 23.772 21.9572 18.5232 19.1947C18.8702 18.9185 21.9019 16.6093 22.1215 16.7084C26.2012 18.6009 29.8252 21.3503 32.7467 24.7694C34.7867 27.0431 35.7855 26.1011 35.4596 23.2606C35.1479 20.8239 33.9296 16.7084 32.3146 15.1572C30.1896 13.1242 27.3987 12.9755 24.7424 13.7405C22.9928 14.2363 24.1686 15.6317 25.6845 15.2776C27.6254 14.8242 29.6158 14.973 31.1175 16.418C32.4067 17.6576 33.4196 21.1072 33.7171 23.3102C28.2345 17.3034 20.4357 12.4796 12.0135 13.28C13.1825 11.8305 14.6269 10.6267 16.2635 9.73833C18.2063 10.9296 20.3787 11.6972 22.6386 11.9909C25.6137 12.43 28.2558 11.9484 28.5675 10.9C29.2758 8.43499 21.3565 6.56497 18.6011 7.09623C18.4414 7.26285 18.3449 7.47994 18.3281 7.71008C18.3113 7.94023 18.3752 8.16903 18.509 8.35708C18.6629 8.56139 18.8879 8.70043 19.1394 8.74666C19.3307 8.71124 19.5361 8.69 19.7344 8.66875C21.3211 8.51292 27.0303 10.05 26.9241 10.4113C26.8391 10.6592 25.0399 10.6025 22.8795 10.2838C21.289 10.0685 19.7396 9.61729 18.2823 8.94499C17.6574 8.57268 17.0522 8.16839 16.469 7.73373L16.2281 7.51415C15.3002 6.54372 14.9744 4.77995 15.6615 2.78243C19.3462 1.81125 23.2423 2.01433 26.8061 3.36336C30.3699 4.71239 33.4239 7.14008 35.542 10.3078C37.66 13.4756 38.7366 17.2254 38.6215 21.0343C38.5065 24.8432 37.2055 28.5212 34.9 31.5553C34.9034 32.805 34.7122 34.0477 34.3334 35.2387C36.3368 33.3403 37.9322 31.0534 39.0222 28.5178C40.1122 25.9822 40.6739 23.251 40.673 20.491L40.7438 20.406Z" fill="white"/>
</svg>
