<svg width="37" height="37" viewBox="0 0 37 37" fill="none" xmlns="http://www.w3.org/2000/svg">
<path fill-rule="evenodd" clip-rule="evenodd" d="M4.50195 13.0551C4.50195 8.69256 8.0831 5.11621 12.4409 5.11621H23.563C27.9256 5.11621 31.502 8.69735 31.502 13.0551V24.1773C31.502 28.5399 27.9208 32.1162 23.563 32.1162H12.4409C8.0783 32.1162 4.50195 28.5351 4.50195 24.1773V13.0551ZM24.002 18.6162C24.002 15.2822 21.3359 12.6162 18.002 12.6162C14.668 12.6162 12.002 15.2822 12.002 18.6162C12.002 21.9502 14.668 24.6162 18.002 24.6162C21.3359 24.6162 24.002 21.9502 24.002 18.6162ZM25.6895 9.61621C26.6271 9.61621 27.377 10.366 27.377 11.3037C27.377 12.2414 26.6271 12.9912 25.6895 12.9912C24.7518 12.9912 24.002 12.2414 24.002 11.3037C24.002 10.366 24.7518 9.61621 25.6895 9.61621Z" fill="white"/>
</svg>
