<svg width="227" height="20" viewBox="0 0 227 20" fill="none" xmlns="http://www.w3.org/2000/svg">
<path d="M2.61124 12.0598C2.61124 14.2415 2.61124 16.1115 2.49082 17.1103C2.39874 17.8186 2.27832 18.3216 1.78248 18.4136C1.50397 18.4797 1.2187 18.513 0.932473 18.5128C0.649136 18.5128 0.549962 18.5836 0.549962 18.697C0.549962 18.8103 0.719963 18.9378 1.02455 18.9378C1.97373 18.9378 3.46833 18.867 4.01376 18.867C4.55918 18.867 6.13878 18.9378 7.69005 18.9378C7.95214 18.9378 8.14339 18.867 8.14339 18.697C8.14339 18.527 8.02298 18.5128 7.76089 18.5128C7.35545 18.5053 6.95089 18.4722 6.54962 18.4136C5.84128 18.3216 5.69961 17.7974 5.62877 17.1315C5.50836 16.1115 5.50836 14.2415 5.50836 12.0598V2.56802C5.50836 2.31302 5.5792 2.17134 5.69961 2.12176C6.00041 2.04578 6.31038 2.01241 6.62046 2.0226C7.49917 2.02683 8.34492 2.35756 8.9934 2.95053C9.47154 3.40336 9.84581 3.9545 10.0904 4.56594C10.335 5.17738 10.444 5.83458 10.4101 6.49224C10.4101 8.91477 8.56132 10.4094 7.22964 10.4094C6.7338 10.4094 6.56379 10.4802 6.56379 10.6715C6.56379 10.8627 6.7338 10.8556 6.85421 10.884C7.01932 10.8947 7.18495 10.8947 7.35005 10.884C8.11753 10.9194 8.88406 10.796 9.60165 10.5215C10.3192 10.247 10.9724 9.8273 11.5203 9.28871C12.0682 8.75012 12.499 8.10422 12.7858 7.39144C13.0725 6.67866 13.2091 5.91437 13.1868 5.1464C13.1701 4.08387 12.7438 3.06881 11.9968 2.31303C11.6214 1.95886 10.5801 0.96009 7.58381 0.96009C6.49296 0.96009 5.11877 1.038 4.14834 1.038C3.4825 1.038 1.9879 0.96009 0.734138 0.96009C0.372884 0.96009 0.209961 1.00967 0.209961 1.17967C0.209961 1.34968 0.351624 1.39217 0.61371 1.39217C0.924594 1.38532 1.23541 1.40905 1.54165 1.46301C2.32082 1.62593 2.51207 2.00843 2.55457 2.81594C2.59707 3.62345 2.60416 4.23263 2.60416 7.83809V12.0173L2.61124 12.0598ZM25.1224 19.2707C31.1433 19.2707 34.94 14.9782 34.94 9.5452C34.94 4.11221 31.2637 0.676758 25.3561 0.676758C18.2727 0.676758 15.5597 5.91849 15.5597 9.97021C15.5597 14.1707 18.3152 19.2707 25.1224 19.2707ZM26.114 18.0807C21.5594 18.0807 18.8323 14.1707 18.8323 9.23352C18.8323 3.33303 21.9419 1.81009 24.669 1.81009C28.5578 1.81009 31.6179 5.11097 31.6179 10.4235C31.6179 17.2732 27.7786 18.0807 26.114 18.0807ZM40.9892 5.81931H41.0601C41.4921 6.27265 44.1201 9.16268 46.7268 11.7269C49.1989 14.1707 52.2306 17.2732 53.7252 18.697C53.9873 18.9591 54.2706 19.2212 54.5327 19.2212C54.7948 19.2212 54.8373 19.0087 54.8373 18.5128L55.0994 3.54554C55.0994 2.22094 55.3119 1.7251 55.9777 1.53385C56.2095 1.47795 56.4478 1.45412 56.6861 1.46301C56.9694 1.46301 57.1111 1.39218 57.1111 1.25051C57.1111 1.05926 56.8703 1.03093 56.5657 1.03093C55.404 1.03093 54.5044 1.10884 54.2423 1.10884C53.7394 1.10884 52.606 1.03093 51.3735 1.03093C51.0123 1.03093 50.7573 1.03093 50.7573 1.25051C50.7573 1.4701 50.8493 1.46301 51.1327 1.46301C51.5579 1.44152 51.9837 1.48938 52.3935 1.60468C52.9602 1.83844 53.1727 2.31303 53.194 3.72971L53.4348 14.3548H53.2577C52.854 13.9723 49.6522 10.5581 48.0443 8.9431C44.5805 5.50764 40.9609 1.71093 40.6917 1.39926C40.288 0.974254 40.0684 0.690917 39.8134 0.690917C39.5584 0.690917 39.5017 1.01676 39.5017 1.49135L39.3034 15.4528C39.3034 17.514 39.183 18.2011 38.595 18.3924C38.2472 18.4763 37.8903 18.5168 37.5325 18.5128C37.2917 18.5128 37.15 18.5553 37.15 18.697C37.15 18.8386 37.3625 18.9378 37.6742 18.9378C38.9067 18.9378 40.0188 18.867 40.2313 18.867C40.6846 18.867 41.648 18.9378 43.1709 18.9378C43.5038 18.9378 43.7163 18.8882 43.7163 18.697C43.7163 18.5057 43.5747 18.5128 43.3197 18.5128C42.8999 18.5247 42.4811 18.4672 42.0801 18.3428C41.6055 18.1799 41.3009 17.5636 41.2513 15.7078L40.9892 5.79097V5.81931ZM62.3883 12.0598C62.3883 14.2415 62.3882 16.1115 62.2678 17.1103C62.1687 17.8186 62.0553 18.3216 61.5595 18.4136C61.2786 18.4796 60.991 18.5129 60.7024 18.5128C60.4191 18.5128 60.327 18.5836 60.327 18.697C60.327 18.8103 60.4899 18.9378 60.8016 18.9378C61.2691 18.9378 61.8924 18.8882 62.4378 18.8882C62.9832 18.8882 63.5287 18.8882 63.7837 18.8882C64.3787 18.8882 65.2004 18.9591 66.1141 19.0299C67.0279 19.1007 67.9841 19.1716 68.8412 19.1716C73.2259 19.1716 75.6909 17.4857 76.7818 16.3382C78.4757 14.5559 79.4039 12.1809 79.3672 9.72228C79.4266 7.48768 78.5989 5.32043 77.0651 3.69428C74.4867 0.988414 70.52 0.988409 67.5591 0.988409C66.1425 0.988409 64.6408 1.06634 63.9041 1.06634C63.1674 1.06634 61.7791 0.988409 60.4899 0.988409C60.1357 0.988409 59.9657 1.03801 59.9657 1.20801C59.9657 1.37802 60.1074 1.42051 60.3695 1.42051C60.6804 1.41366 60.9912 1.43739 61.2974 1.49135C62.0766 1.65427 62.2678 2.03677 62.3174 2.84428C62.367 3.65179 62.367 4.26097 62.367 7.86643V12.0456L62.3883 12.0598ZM65.3491 7.50517C65.3491 5.62806 65.3491 3.56677 65.3491 2.75926C65.3339 2.65862 65.3546 2.55584 65.4078 2.46901C65.4609 2.38219 65.543 2.31691 65.6395 2.28469C66.1435 2.16872 66.6596 2.11401 67.1766 2.12176C69.6469 1.99487 72.0676 2.84757 73.913 4.49471C74.6749 5.27694 75.27 6.20581 75.662 7.22497C76.0541 8.24413 76.2351 9.33233 76.1938 10.4235C76.1938 12.8673 75.7192 15.0207 74.1963 16.3311C72.6734 17.6415 71.1646 18.0382 68.7421 18.0382C66.872 18.0382 65.9087 17.5353 65.6395 17.089C65.4443 16.5076 65.3555 15.8957 65.3774 15.2828C65.3774 14.8365 65.3279 13.009 65.3279 10.4944V7.50517H65.3491ZM84.3469 12.0598C84.3469 14.2415 84.3469 16.1115 84.2264 17.1103C84.1344 17.8186 84.0139 18.3216 83.5181 18.4136C83.2396 18.4797 82.9543 18.513 82.6681 18.5128C82.3777 18.5128 82.2856 18.5836 82.2856 18.697C82.2856 18.8103 82.4556 18.9378 82.7602 18.9378C83.2347 18.9378 83.851 18.8882 84.3964 18.8882C84.9419 18.8882 85.4873 18.8882 85.7494 18.8882C86.4577 18.8882 87.1661 18.8882 88.2144 18.9591C89.2628 19.0299 90.5378 19.0299 92.3157 19.0299C93.2224 19.0299 93.4349 19.0299 93.5978 18.4136C93.7651 17.544 93.8693 16.6633 93.9095 15.7786C93.9095 15.5448 93.9095 15.3536 93.7182 15.3536C93.527 15.3536 93.5057 15.4457 93.4561 15.7078C93.2932 16.6782 93.0099 17.1811 92.3865 17.4645C91.6694 17.6975 90.915 17.7936 90.1623 17.7478C87.7398 17.7478 87.3644 17.3936 87.329 15.7574C87.329 15.049 87.329 12.924 87.329 12.0811V10.2039C87.329 10.0623 87.329 9.97021 87.4706 9.97021C88.0373 9.97021 90.389 9.97019 90.8353 10.041C91.7136 10.1331 92.0465 10.4873 92.1669 10.9619C92.2184 11.245 92.2492 11.5314 92.259 11.819C92.259 11.9394 92.3086 12.0315 92.4786 12.0315C92.6486 12.0315 92.6911 11.7694 92.6911 11.5781C92.6911 11.3869 92.7619 10.466 92.7832 9.99146C92.8753 8.78019 92.9745 8.40477 92.9745 8.2631C92.9745 8.12143 92.9036 8.07183 92.8045 8.07183C92.7053 8.07183 92.5919 8.19227 92.429 8.37644C92.2661 8.56061 91.8553 8.68809 91.2886 8.73768C90.7219 8.78726 88.0161 8.78017 87.4919 8.78017C87.3502 8.78017 87.329 8.6881 87.329 8.52518V2.51843C87.329 2.35551 87.3785 2.28469 87.4919 2.28469C87.9665 2.28469 90.4598 2.33427 90.8636 2.37678C92.0465 2.51844 92.2803 2.80886 92.4503 3.23386C92.5466 3.50679 92.5946 3.79446 92.592 4.08388C92.592 4.30347 92.6415 4.4168 92.8045 4.4168C92.9674 4.4168 93.0241 4.27512 93.0453 4.1547C93.0949 3.87136 93.1374 2.83011 93.1657 2.58927C93.2365 1.49842 93.3499 1.2151 93.3499 1.05218C93.3499 0.88926 93.3499 0.839663 93.2082 0.839663C93.0808 0.860279 92.9553 0.891076 92.8328 0.931751C92.4955 0.996928 92.155 1.04423 91.8128 1.07343C91.3594 1.07343 86.6419 1.07343 85.884 1.07343C85.551 1.07343 85.0056 1.07342 84.3894 1.02384C83.7731 0.974255 83.1072 1.02384 82.4697 1.02384C82.1085 1.02384 81.9456 1.07342 81.9456 1.24342C81.9456 1.41343 82.0872 1.45592 82.3493 1.45592C82.6579 1.4487 82.9664 1.47244 83.2702 1.52676C84.0564 1.68967 84.2477 2.07218 84.2902 2.87969C84.3327 3.6872 84.3398 4.29637 84.3398 7.90184V12.0811L84.3469 12.0598ZM99.3354 12.0598C99.3354 14.2415 99.3354 16.1115 99.215 17.1103C99.1229 17.8186 99.0025 18.3216 98.5066 18.4136C98.2281 18.4797 97.9428 18.513 97.6566 18.5128C97.3733 18.5128 97.2741 18.5836 97.2741 18.697C97.2741 18.8103 97.4441 18.9378 97.7487 18.9378C98.6979 18.9378 100.192 18.867 100.646 18.867C101.099 18.867 102.771 18.9378 104.131 18.9378C104.435 18.9378 104.605 18.867 104.605 18.697C104.605 18.527 104.506 18.5128 104.322 18.5128C103.933 18.5017 103.545 18.4686 103.16 18.4136C102.452 18.3216 102.303 17.7974 102.233 17.1103C102.112 16.1115 102.112 14.2769 102.112 12.0315V11.7056C102.112 11.5569 102.183 11.5144 102.303 11.5144L104.365 11.5569C104.445 11.549 104.526 11.5603 104.601 11.5899C104.676 11.6194 104.743 11.6664 104.797 11.7269C105.101 12.0811 106.213 13.6961 107.141 14.9994C108.473 16.8269 109.373 17.9391 110.393 18.4845C111.181 18.8634 112.058 19.0201 112.928 18.9378H115.181C115.464 18.9378 115.634 18.8882 115.634 18.697C115.634 18.5057 115.535 18.5128 115.351 18.5128C115.128 18.5068 114.905 18.4831 114.685 18.442C113.645 18.2145 112.71 17.6461 112.029 16.827C110.612 15.3536 108.99 13.2427 106.879 10.5865C109.273 8.6456 110.01 7.04475 110.01 5.27389C110.007 4.64541 109.86 4.02597 109.581 3.46261C109.303 2.89925 108.9 2.40679 108.402 2.0226C107.08 1.25372 105.558 0.898453 104.032 1.00259C103.323 1.00259 101.496 1.0805 100.688 1.0805C100.192 1.0805 98.6979 1.00259 97.4441 1.00259C97.0828 1.00259 96.9199 1.05217 96.9199 1.22217C96.9199 1.39218 97.0616 1.43467 97.3237 1.43467C97.6322 1.42745 97.9407 1.45119 98.2445 1.50551C99.0308 1.66843 99.222 2.05093 99.2645 2.85844C99.3071 3.66595 99.3141 4.27512 99.3141 7.88059V12.0598H99.3354ZM102.133 2.54677C102.133 2.35552 102.183 2.26343 102.346 2.21385C102.761 2.13301 103.184 2.10209 103.607 2.12176C105.023 2.12176 107.233 3.09219 107.233 6.4639C107.233 8.40476 106.525 9.49561 105.817 10.0056C105.325 10.3454 104.723 10.4894 104.131 10.4094C103.52 10.4192 102.911 10.338 102.325 10.1685C102.162 10.0977 102.112 10.0056 102.112 9.74353V2.54677H102.133ZM124.092 19.2707C130.113 19.2707 133.91 14.9782 133.91 9.5452C133.91 4.11221 130.233 0.676758 124.326 0.676758C117.242 0.676758 114.529 5.91849 114.529 9.97021C114.529 14.1707 117.285 19.2707 124.092 19.2707ZM125.084 18.0807C120.536 18.0807 117.802 14.1707 117.802 9.23352C117.802 3.33303 120.911 1.81009 123.639 1.81009C127.527 1.81009 130.587 5.11097 130.587 10.4235C130.587 17.2732 126.748 18.0807 125.084 18.0807ZM141.262 19.2707C142.587 19.3191 143.897 18.9794 145.031 18.2932C145.726 17.856 146.296 17.2468 146.687 16.5246C147.078 15.8025 147.276 14.9917 147.262 14.1707C147.262 11.9181 146.242 10.2819 143.373 8.12142L142.707 7.62559C140.738 6.13099 140.193 5.30223 140.193 4.21138C140.193 2.79469 141.262 1.76759 143.026 1.76759C143.519 1.73406 144.013 1.82251 144.464 2.02511C144.915 2.22772 145.309 2.53825 145.611 2.92928C145.967 3.37843 146.182 3.92333 146.228 4.49471C146.228 4.77805 146.298 4.91972 146.461 4.91972C146.624 4.91972 146.723 4.72847 146.723 4.21138C146.723 2.35552 146.816 1.66843 146.816 1.37801C146.816 1.20801 146.702 1.13718 146.49 1.09468C145.461 0.812708 144.397 0.676788 143.331 0.690917C140.037 0.690917 137.855 2.56095 137.855 5.16765C137.855 7.09434 138.755 8.75186 141.361 10.7919L142.452 11.649C144.421 13.1861 144.776 14.2769 144.776 15.4386C144.776 16.6003 143.734 18.1445 141.602 18.1445C140.847 18.2009 140.095 17.993 139.476 17.5562C138.857 17.1194 138.409 16.481 138.209 15.7503C138.088 15.357 138.016 14.9501 137.997 14.539C137.997 14.3477 137.997 14.1353 137.756 14.1353C137.515 14.1353 137.501 14.3973 137.473 14.7515C137.444 15.1057 137.352 16.5578 137.352 17.8611C137.352 18.3782 137.423 18.4986 137.805 18.6686C138.903 19.1194 140.084 19.3295 141.269 19.2849L141.262 19.2707ZM159.141 12.8957C159.193 12.8916 159.246 12.9055 159.29 12.9351C159.333 12.9647 159.366 13.0082 159.382 13.0586L161.28 17.9461C161.307 17.9951 161.322 18.0493 161.326 18.1049C161.329 18.1606 161.321 18.2163 161.301 18.2683C161.28 18.3203 161.249 18.3672 161.209 18.4057C161.168 18.4443 161.12 18.4736 161.067 18.4916C160.827 18.4916 160.734 18.5624 160.734 18.7041C160.734 18.8457 161.018 18.8741 161.443 18.8953C163.341 18.9449 165.077 18.9449 165.927 18.9449C166.777 18.9449 167.017 18.8953 167.017 18.7041C167.017 18.5128 166.897 18.5199 166.713 18.5199C166.378 18.5189 166.043 18.4857 165.714 18.4207C165.218 18.3003 164.531 17.9745 163.589 15.8353C162.073 12.2298 158.277 2.74511 157.71 1.44176C157.469 0.896334 157.327 0.683827 157.115 0.683827C156.902 0.683827 156.739 0.938827 156.449 1.633L150.499 16.3382C150.024 17.5211 149.571 18.3286 148.48 18.4632C148.296 18.4632 147.963 18.5128 147.772 18.5128C147.581 18.5128 147.481 18.5553 147.481 18.697C147.481 18.8386 147.63 18.9378 147.935 18.9378C149.167 18.9378 150.471 18.867 150.768 18.867C151.476 18.867 152.525 18.9378 153.283 18.9378C153.545 18.9378 153.686 18.8882 153.686 18.697C153.686 18.5057 153.616 18.5128 153.332 18.5128H152.978C152.27 18.5128 152.029 18.2011 152.029 17.8045C152.068 17.316 152.188 16.8373 152.383 16.3878L153.665 13.1365C153.708 12.9948 153.757 12.9452 153.878 12.9452L159.141 12.8957ZM154.331 11.7127C154.232 11.7127 154.211 11.6419 154.232 11.5427L156.414 5.73431C156.414 5.63514 156.484 5.52182 156.562 5.52182C156.64 5.52182 156.654 5.63514 156.676 5.73431L158.801 11.564C158.801 11.6419 158.801 11.7127 158.68 11.7127H154.331ZM176.623 12.0669C176.623 14.369 176.623 16.239 176.502 17.2378C176.431 17.9461 176.29 18.3286 175.794 18.4207C175.515 18.4868 175.23 18.52 174.944 18.5199C174.66 18.5199 174.561 18.5907 174.561 18.7041C174.561 18.8174 174.731 18.9449 175.036 18.9449C175.985 18.9449 177.48 18.8741 178.025 18.8741C178.571 18.8741 180.15 18.9449 181.723 18.9449C181.985 18.9449 182.176 18.8741 182.176 18.7041C182.176 18.5341 182.056 18.5199 181.793 18.5199C181.39 18.5124 180.988 18.4792 180.589 18.4207C179.881 18.3286 179.711 17.8965 179.64 17.259C179.541 16.239 179.541 14.369 179.541 12.0669V7.88768C179.541 4.2893 179.541 3.63763 179.591 2.86553C179.64 2.09344 179.831 1.63301 180.469 1.5126C180.702 1.46685 180.939 1.44313 181.177 1.44176C181.418 1.44176 181.56 1.39218 181.56 1.20092C181.56 1.00967 181.368 1.00966 181.064 1.00966C180.157 1.00966 178.762 1.08759 178.167 1.08759C177.572 1.08759 175.985 1.00966 175.085 1.00966C174.703 1.00966 174.512 1.05926 174.512 1.20092C174.512 1.34259 174.66 1.44176 174.894 1.44176C175.183 1.43619 175.471 1.46714 175.751 1.53385C176.268 1.65426 176.509 2.05802 176.552 2.86553C176.594 3.67304 176.601 4.28222 176.601 7.88768V12.0669H176.623ZM188.409 5.8264H188.48C188.912 6.27974 191.54 9.16977 194.147 11.734C196.612 14.1778 199.651 17.2803 201.145 18.7041C201.407 18.9661 201.691 19.2282 201.953 19.2282C202.215 19.2282 202.257 19.0157 202.257 18.5199L202.52 3.55263C202.52 2.22803 202.732 1.73217 203.398 1.54091C203.63 1.48467 203.868 1.46084 204.106 1.4701C204.397 1.4701 204.538 1.39925 204.538 1.25758C204.538 1.11591 204.298 1.038 203.993 1.038C202.831 1.038 201.925 1.11593 201.67 1.11593C201.167 1.11593 200.033 1.038 198.794 1.038C198.44 1.038 198.177 1.038 198.177 1.25758C198.177 1.47717 198.277 1.4701 198.56 1.4701C198.983 1.44824 199.406 1.49609 199.814 1.61175C200.387 1.84551 200.6 2.3201 200.621 3.73678L200.862 14.3619H200.742C200.338 13.9794 197.136 10.5652 195.521 8.95019C192.064 5.51473 188.438 1.71802 188.169 1.40635C187.765 0.981344 187.552 0.698007 187.297 0.698007C187.042 0.698007 186.986 1.02383 186.986 1.49842L186.773 15.474C186.773 17.5353 186.653 18.2224 186.065 18.4136C185.715 18.4979 185.355 18.5384 184.995 18.5341C184.761 18.5341 184.62 18.5765 184.62 18.7182C184.62 18.8599 184.832 18.9591 185.137 18.9591C186.376 18.9591 187.489 18.8882 187.701 18.8882C188.154 18.8882 189.118 18.9591 190.641 18.9591C190.974 18.9591 191.186 18.9095 191.186 18.7182C191.186 18.527 191.044 18.5341 190.782 18.5341C190.365 18.5454 189.949 18.488 189.55 18.364C189.075 18.2011 188.771 17.5849 188.721 15.729L188.459 5.81224L188.409 5.8264ZM210.871 5.8264H210.942C211.367 6.27974 214.002 9.16977 216.609 11.734C219.074 14.1778 222.112 17.2803 223.607 18.7041C223.869 18.9661 224.152 19.2282 224.414 19.2282C224.677 19.2282 224.719 19.0157 224.719 18.5199L224.981 3.55263C224.981 2.22803 225.194 1.73217 225.859 1.54091C226.091 1.48467 226.33 1.46084 226.568 1.4701C226.851 1.4701 227 1.39925 227 1.25758C227 1.11591 226.759 1.038 226.454 1.038C225.286 1.038 224.386 1.11593 224.124 1.11593C223.628 1.11593 222.488 1.038 221.255 1.038C220.901 1.038 220.639 1.038 220.639 1.25758C220.639 1.47717 220.738 1.4701 221.021 1.4701C221.444 1.44824 221.868 1.49609 222.275 1.61175C222.849 1.84551 223.062 2.3201 223.083 3.73678L223.324 14.3619H223.203C222.799 13.9794 219.598 10.5652 217.983 8.95019C214.519 5.51473 210.899 1.71802 210.63 1.40635C210.226 0.981344 210.014 0.698007 209.752 0.698007C209.49 0.698007 209.447 1.02383 209.447 1.49842L209.235 15.474C209.235 17.5353 209.114 18.2224 208.526 18.4136C208.176 18.4979 207.817 18.5384 207.457 18.5341C207.223 18.5341 207.081 18.5765 207.081 18.7182C207.081 18.8599 207.294 18.9591 207.598 18.9591C208.831 18.9591 209.95 18.8882 210.163 18.8882C210.616 18.8882 211.579 18.9591 213.102 18.9591C213.435 18.9591 213.648 18.9095 213.648 18.7182C213.648 18.527 213.506 18.5341 213.244 18.5341C212.827 18.5454 212.41 18.488 212.011 18.364C211.537 18.2011 211.232 17.5849 211.183 15.729L210.921 5.81224L210.871 5.8264Z" fill="#3E1E09"/>
</svg>
