<svg width="232" height="167" viewBox="0 0 232 167" fill="none" xmlns="http://www.w3.org/2000/svg">
<path d="M3.41587 113.395C3.41587 116.399 3.41587 118.975 3.24918 120.351C3.1217 121.326 2.95501 122.019 2.26862 122.146C1.88308 122.237 1.48819 122.282 1.09196 122.282C0.699743 122.282 0.562458 122.38 0.562458 122.536C0.562458 122.692 0.797788 122.868 1.21943 122.868C2.53337 122.868 4.60233 122.77 5.35736 122.77C6.11238 122.77 8.29902 122.868 10.4464 122.868C10.8092 122.868 11.074 122.77 11.074 122.536C11.074 122.302 10.9073 122.282 10.5445 122.282C9.98324 122.272 9.4232 122.226 8.86773 122.146C7.88718 122.019 7.69107 121.297 7.59301 120.38C7.42632 118.975 7.42632 116.399 7.42632 113.395V100.322C7.42632 99.9708 7.52438 99.7757 7.69108 99.7074C8.10746 99.6028 8.53656 99.5568 8.9658 99.5709C10.1822 99.5767 11.3529 100.032 12.2506 100.849C12.9125 101.473 13.4306 102.232 13.7692 103.074C14.1077 103.916 14.2587 104.821 14.2117 105.727C14.2117 109.063 11.6525 111.122 9.80907 111.122C9.12269 111.122 8.88735 111.219 8.88735 111.483C8.88735 111.746 9.12269 111.736 9.28938 111.775C9.51793 111.79 9.74721 111.79 9.97576 111.775C11.0382 111.824 12.0993 111.654 13.0926 111.276C14.086 110.898 14.9902 110.32 15.7486 109.578C16.5071 108.836 17.1035 107.947 17.5004 106.965C17.8974 105.983 18.0863 104.931 18.0555 103.873C18.0324 102.41 17.4423 101.012 16.4082 99.9709C15.8885 99.4831 14.4471 98.1075 10.2993 98.1075C8.7893 98.1075 6.88702 98.2148 5.54366 98.2148C4.62195 98.2148 2.55299 98.1075 0.817411 98.1075C0.317329 98.1075 0.0917969 98.1758 0.0917969 98.4099C0.0917969 98.6441 0.2879 98.7026 0.650704 98.7026C1.08106 98.6932 1.51131 98.7258 1.93524 98.8002C3.01385 99.0245 3.27859 99.5513 3.33742 100.664C3.39626 101.776 3.40607 102.615 3.40607 107.58V113.336L3.41587 113.395ZM34.5778 123.326C42.9125 123.326 48.1683 117.414 48.1683 109.931C48.1683 102.449 43.0792 97.7173 34.9014 97.7173C25.0959 97.7173 21.3404 104.937 21.3404 110.517C21.3404 116.302 25.1547 123.326 34.5778 123.326ZM35.9506 121.687C29.6456 121.687 25.8705 116.302 25.8705 109.502C25.8705 101.376 30.1751 99.2782 33.9503 99.2782C39.3335 99.2782 43.5695 103.824 43.5695 111.141C43.5695 120.575 38.2549 121.687 35.9506 121.687ZM56.5422 104.8H56.6402C57.2384 105.424 60.8762 109.405 64.4846 112.936C67.9068 116.302 72.1035 120.575 74.1725 122.536C74.5353 122.897 74.9275 123.258 75.2903 123.258C75.6531 123.258 75.712 122.965 75.712 122.282L76.0748 101.668C76.0748 99.844 76.3689 99.1611 77.2907 98.8977C77.6115 98.8207 77.9414 98.7879 78.2712 98.8002C78.6634 98.8002 78.8596 98.7026 78.8596 98.5075C78.8596 98.2441 78.5262 98.2051 78.1045 98.2051C76.4964 98.2051 75.2511 98.3124 74.8883 98.3124C74.1921 98.3124 72.6232 98.2051 70.9171 98.2051C70.417 98.2051 70.064 98.2051 70.064 98.5075C70.064 98.8099 70.1915 98.8002 70.5837 98.8002C71.1723 98.7706 71.7618 98.8365 72.3291 98.9953C73.1135 99.3172 73.4077 99.9709 73.4371 101.922L73.7705 116.556H73.5253C72.9664 116.029 68.5343 111.326 66.3085 109.102C61.5136 104.371 56.503 99.1416 56.1303 98.7124C55.5714 98.127 55.2675 97.7368 54.9145 97.7368C54.5615 97.7368 54.483 98.1856 54.483 98.8392L54.2085 118.068C54.2085 120.907 54.0418 121.853 53.2279 122.116C52.7464 122.232 52.2524 122.288 51.7571 122.282C51.4237 122.282 51.2276 122.341 51.2276 122.536C51.2276 122.731 51.5218 122.868 51.9532 122.868C53.6594 122.868 55.1988 122.77 55.493 122.77C56.1205 122.77 57.4541 122.868 59.5623 122.868C60.0231 122.868 60.3173 122.799 60.3173 122.536C60.3173 122.272 60.1212 122.282 59.7682 122.282C59.1872 122.299 58.6074 122.219 58.0522 122.048C57.3953 121.824 56.9736 120.975 56.905 118.419L56.5422 104.761V104.8ZM86.1647 113.395C86.1647 116.399 86.1647 118.975 85.998 120.351C85.8607 121.326 85.7038 122.019 85.0174 122.146C84.6285 122.236 84.2304 122.282 83.831 122.282C83.4387 122.282 83.3113 122.38 83.3113 122.536C83.3113 122.692 83.5368 122.868 83.9682 122.868C84.6154 122.868 85.4783 122.799 86.2333 122.799C86.9883 122.799 87.7433 122.799 88.0963 122.799C88.92 122.799 90.0574 122.897 91.3224 122.994C92.5873 123.092 93.911 123.189 95.0975 123.189C101.167 123.189 104.579 120.868 106.089 119.287C108.434 116.833 109.719 113.561 109.668 110.175C109.751 107.098 108.605 104.113 106.482 101.873C102.912 98.1465 97.4214 98.1465 93.3227 98.1465C91.3616 98.1465 89.2828 98.2538 88.263 98.2538C87.2433 98.2538 85.3214 98.1465 83.5368 98.1465C83.0465 98.1465 82.8112 98.2148 82.8112 98.449C82.8112 98.6831 83.0073 98.7416 83.3701 98.7416C83.8004 98.7322 84.2307 98.7649 84.6546 98.8392C85.7332 99.0636 85.998 99.5904 86.0666 100.703C86.1353 101.815 86.1352 102.654 86.1352 107.619V113.375L86.1647 113.395ZM90.2634 107.122C90.2634 104.537 90.2634 101.698 90.2634 100.585C90.2423 100.447 90.271 100.305 90.3446 100.186C90.4181 100.066 90.5317 99.9762 90.6654 99.9318C91.363 99.7721 92.0774 99.6968 92.7932 99.7074C96.2128 99.5327 99.5637 100.707 102.118 102.976C103.173 104.053 103.997 105.332 104.539 106.736C105.082 108.14 105.333 109.638 105.276 111.141C105.276 114.507 104.619 117.473 102.51 119.277C100.402 121.082 98.3137 121.629 94.9602 121.629C92.3715 121.629 91.038 120.936 90.6654 120.321C90.3951 119.52 90.2722 118.678 90.3026 117.834C90.3026 117.219 90.234 114.702 90.234 111.239V107.122H90.2634ZM116.562 113.395C116.562 116.399 116.562 118.975 116.395 120.351C116.268 121.326 116.101 122.019 115.415 122.146C115.029 122.237 114.634 122.282 114.238 122.282C113.836 122.282 113.708 122.38 113.708 122.536C113.708 122.692 113.944 122.868 114.365 122.868C115.022 122.868 115.875 122.799 116.63 122.799C117.385 122.799 118.14 122.799 118.503 122.799C119.484 122.799 120.464 122.799 121.916 122.897C123.367 122.994 125.132 122.994 127.593 122.994C128.848 122.994 129.142 122.994 129.368 122.146C129.599 120.948 129.744 119.735 129.799 118.516C129.799 118.195 129.799 117.931 129.534 117.931C129.27 117.931 129.24 118.058 129.172 118.419C128.946 119.755 128.554 120.448 127.691 120.838C126.698 121.159 125.654 121.292 124.612 121.229C121.259 121.229 120.739 120.741 120.69 118.487C120.69 117.512 120.69 114.585 120.69 113.424V110.839C120.69 110.644 120.69 110.517 120.886 110.517C121.67 110.517 124.926 110.517 125.544 110.614C126.76 110.741 127.22 111.229 127.387 111.883C127.458 112.272 127.501 112.667 127.515 113.063C127.515 113.229 127.583 113.356 127.819 113.356C128.054 113.356 128.113 112.995 128.113 112.731C128.113 112.468 128.211 111.2 128.24 110.546C128.368 108.878 128.505 108.361 128.505 108.166C128.505 107.971 128.407 107.902 128.27 107.902C128.132 107.902 127.975 108.068 127.75 108.322C127.524 108.575 126.956 108.751 126.171 108.819C125.387 108.888 121.641 108.878 120.915 108.878C120.719 108.878 120.69 108.751 120.69 108.527V100.254C120.69 100.029 120.759 99.9318 120.915 99.9318C121.572 99.9318 125.024 100 125.583 100.059C127.22 100.254 127.544 100.654 127.779 101.239C127.913 101.615 127.979 102.011 127.975 102.41C127.975 102.712 128.044 102.868 128.27 102.868C128.495 102.868 128.574 102.673 128.603 102.507C128.672 102.117 128.73 100.683 128.77 100.351C128.868 98.8489 129.025 98.4587 129.025 98.2343C129.025 98.01 129.025 97.9416 128.828 97.9416C128.652 97.97 128.478 98.0125 128.309 98.0685C127.842 98.1582 127.371 98.2234 126.897 98.2636C126.269 98.2636 119.739 98.2636 118.69 98.2636C118.229 98.2636 117.474 98.2636 116.621 98.1953C115.768 98.127 114.846 98.1953 113.963 98.1953C113.463 98.1953 113.238 98.2636 113.238 98.4977C113.238 98.7319 113.434 98.7904 113.797 98.7904C114.224 98.7805 114.651 98.8131 115.071 98.888C116.16 99.1123 116.424 99.6391 116.483 100.751C116.542 101.863 116.552 102.702 116.552 107.668V113.424L116.562 113.395ZM137.31 113.395C137.31 116.399 137.31 118.975 137.144 120.351C137.016 121.326 136.849 122.019 136.163 122.146C135.777 122.237 135.383 122.282 134.986 122.282C134.594 122.282 134.457 122.38 134.457 122.536C134.457 122.692 134.692 122.868 135.114 122.868C136.428 122.868 138.497 122.77 139.124 122.77C139.752 122.77 142.066 122.868 143.949 122.868C144.37 122.868 144.606 122.77 144.606 122.536C144.606 122.302 144.468 122.282 144.213 122.282C143.675 122.267 143.138 122.221 142.605 122.146C141.625 122.019 141.419 121.297 141.321 120.351C141.154 118.975 141.154 116.448 141.154 113.356V112.907C141.154 112.702 141.252 112.644 141.419 112.644L144.272 112.702C144.383 112.691 144.496 112.707 144.6 112.747C144.704 112.788 144.796 112.853 144.87 112.936C145.292 113.424 146.831 115.648 148.116 117.443C149.959 119.96 151.205 121.492 152.617 122.243C153.708 122.765 154.922 122.981 156.127 122.868H159.245C159.637 122.868 159.873 122.799 159.873 122.536C159.873 122.272 159.735 122.282 159.481 122.282C159.171 122.274 158.863 122.241 158.559 122.185C157.118 121.871 155.824 121.089 154.882 119.96C152.921 117.931 150.675 115.024 147.753 111.366C151.067 108.692 152.087 106.488 152.087 104.049C152.082 103.183 151.88 102.33 151.494 101.554C151.108 100.778 150.55 100.1 149.861 99.5709C148.031 98.5119 145.924 98.0226 143.811 98.166C142.831 98.166 140.301 98.2733 139.183 98.2733C138.497 98.2733 136.428 98.166 134.692 98.166C134.192 98.166 133.967 98.2343 133.967 98.4685C133.967 98.7026 134.163 98.7611 134.525 98.7611C134.953 98.7512 135.38 98.7839 135.8 98.8587C136.889 99.0831 137.153 99.6099 137.212 100.722C137.271 101.834 137.281 102.673 137.281 107.639V113.395H137.31ZM141.183 100.293C141.183 100.029 141.252 99.9025 141.478 99.8343C142.052 99.7229 142.638 99.6803 143.223 99.7074C145.184 99.7074 148.243 101.044 148.243 105.688C148.243 108.361 147.263 109.863 146.282 110.566C145.601 111.034 144.769 111.232 143.949 111.122C143.103 111.135 142.26 111.023 141.448 110.79C141.223 110.692 141.154 110.566 141.154 110.205V100.293H141.183ZM171.581 123.326C179.915 123.326 185.171 117.414 185.171 109.931C185.171 102.449 180.082 97.7173 171.904 97.7173C162.099 97.7173 158.343 104.937 158.343 110.517C158.343 116.302 162.157 123.326 171.581 123.326ZM172.953 121.687C166.658 121.687 162.873 116.302 162.873 109.502C162.873 101.376 167.178 99.2782 170.953 99.2782C176.336 99.2782 180.572 103.824 180.572 111.141C180.572 120.575 175.258 121.687 172.953 121.687ZM195.349 123.326C197.183 123.393 198.996 122.925 200.566 121.98C201.528 121.378 202.318 120.539 202.859 119.544C203.4 118.549 203.674 117.433 203.654 116.302C203.654 113.2 202.242 110.946 198.271 107.971L197.349 107.288C194.624 105.229 193.869 104.088 193.869 102.585C193.869 100.634 195.349 99.2196 197.791 99.2196C198.473 99.1735 199.157 99.2953 199.781 99.5743C200.406 99.8534 200.951 100.281 201.37 100.82C201.863 101.438 202.16 102.189 202.223 102.976C202.223 103.366 202.321 103.561 202.546 103.561C202.772 103.561 202.909 103.298 202.909 102.585C202.909 100.029 203.037 99.0831 203.037 98.6831C203.037 98.449 202.88 98.3514 202.586 98.2929C201.161 97.9045 199.689 97.7173 198.212 97.7368C193.653 97.7368 190.633 100.312 190.633 103.902C190.633 106.556 191.878 108.839 195.486 111.648L196.996 112.829C199.722 114.946 200.213 116.448 200.213 118.048C200.213 119.648 198.771 121.775 195.82 121.775C194.774 121.853 193.734 121.566 192.877 120.965C192.02 120.363 191.4 119.484 191.123 118.477C190.955 117.936 190.856 117.375 190.829 116.809C190.829 116.546 190.829 116.253 190.495 116.253C190.162 116.253 190.142 116.614 190.103 117.102C190.064 117.59 189.936 119.59 189.936 121.385C189.936 122.097 190.035 122.263 190.564 122.497C192.083 123.118 193.718 123.407 195.359 123.346L195.349 123.326ZM220.098 114.546C220.171 114.54 220.244 114.559 220.304 114.6C220.365 114.641 220.41 114.701 220.432 114.77L223.06 121.502C223.097 121.569 223.118 121.644 223.123 121.72C223.128 121.797 223.116 121.874 223.088 121.945C223.06 122.017 223.017 122.082 222.961 122.135C222.905 122.188 222.838 122.228 222.765 122.253C222.432 122.253 222.305 122.35 222.305 122.546C222.305 122.741 222.697 122.78 223.285 122.809C225.913 122.877 228.315 122.877 229.492 122.877C230.669 122.877 231.002 122.809 231.002 122.546C231.002 122.282 230.835 122.292 230.58 122.292C230.116 122.291 229.653 122.245 229.198 122.155C228.511 121.989 227.56 121.541 226.256 118.595C224.158 113.629 218.902 100.566 218.118 98.7709C217.784 98.0197 217.588 97.727 217.294 97.727C217 97.727 216.774 98.0782 216.372 99.0343L208.136 119.287C207.479 120.916 206.851 122.029 205.341 122.214C205.086 122.214 204.625 122.282 204.36 122.282C204.096 122.282 203.958 122.341 203.958 122.536C203.958 122.731 204.164 122.868 204.586 122.868C206.292 122.868 208.096 122.77 208.508 122.77C209.489 122.77 210.94 122.868 211.989 122.868C212.352 122.868 212.548 122.799 212.548 122.536C212.548 122.272 212.45 122.282 212.058 122.282H211.567C210.587 122.282 210.254 121.853 210.254 121.307C210.308 120.634 210.474 119.975 210.744 119.355L212.519 114.878C212.577 114.682 212.646 114.614 212.813 114.614L220.098 114.546ZM213.44 112.917C213.303 112.917 213.274 112.819 213.303 112.683L216.323 104.683C216.323 104.546 216.421 104.39 216.529 104.39C216.637 104.39 216.657 104.546 216.686 104.683L219.628 112.712C219.628 112.819 219.628 112.917 219.461 112.917H213.44Z" fill="#939598"/>
<path d="M81.9722 163.935C82.1389 162.56 82.1389 159.984 82.1389 156.814H82.1094V151.058C82.1094 146.092 82.0996 145.253 82.0408 144.141C81.982 143.029 81.6486 142.473 80.9328 142.307C80.5442 142.215 80.1456 142.172 79.7463 142.18C79.4227 142.18 79.2168 142.044 79.2168 141.848C79.2168 141.653 79.4815 141.585 80.011 141.585C81.2563 141.585 83.4528 141.692 84.2765 141.692C85.1001 141.692 87.0318 141.585 88.2869 141.585C88.7086 141.585 88.9733 141.585 88.9733 141.848C88.9733 142.112 88.7772 142.18 88.4438 142.18C88.1146 142.182 87.7863 142.215 87.4632 142.278C86.5807 142.444 86.316 143.078 86.2474 144.141C86.1787 145.204 86.1787 146.102 86.1787 151.058V156.814C86.1787 159.984 86.1788 162.56 86.316 163.965C86.4141 164.843 86.6494 165.438 87.63 165.565C88.1821 165.645 88.7389 165.691 89.2969 165.701C89.6597 165.701 89.8264 165.721 89.8264 165.955C89.8264 166.189 89.5616 166.286 89.1988 166.286C87.022 166.286 84.8354 166.189 84.0804 166.189C83.3253 166.189 81.2564 166.286 79.9424 166.286C79.5208 166.286 79.2854 166.111 79.2854 165.955C79.2854 165.799 79.4227 165.701 79.815 165.701C80.2112 165.701 80.6061 165.655 80.9916 165.565C81.678 165.438 81.8741 164.911 81.9722 163.935Z" fill="#939598"/>
<path d="M98.5533 148.219H98.5244L98.8867 161.857C98.9553 164.413 99.377 165.262 100.034 165.486C100.586 165.657 101.162 165.736 101.74 165.721C102.103 165.721 102.299 165.711 102.299 165.974C102.299 166.238 102.005 166.306 101.544 166.306C99.4358 166.306 98.1023 166.208 97.4747 166.208C97.1805 166.208 95.6411 166.306 93.9251 166.306C93.5035 166.306 93.2093 166.169 93.2093 165.974C93.2093 165.779 93.4054 165.721 93.729 165.721C94.2275 165.727 94.7249 165.671 95.2096 165.555C96.0235 165.291 96.1902 164.345 96.1902 161.506L96.4843 142.258C96.4843 141.604 96.5628 141.156 96.9158 141.156C97.2688 141.156 97.5629 141.546 98.1218 142.131C98.4944 142.561 103.515 147.79 108.3 152.521C110.536 154.745 114.968 159.448 115.527 159.975H115.693L115.36 145.341C115.331 143.39 115.036 142.736 114.242 142.414C113.678 142.255 113.092 142.189 112.507 142.219C112.114 142.219 111.977 142.229 111.977 141.926C111.977 141.624 112.34 141.624 112.83 141.624C114.546 141.624 116.115 141.731 116.811 141.731C117.164 141.731 118.419 141.624 120.027 141.624C120.449 141.624 120.782 141.731 120.782 141.926C120.782 142.122 120.586 142.219 120.184 142.219C119.854 142.206 119.524 142.239 119.204 142.317C118.282 142.58 117.988 143.263 117.988 145.087L117.625 165.701C117.625 166.384 117.566 166.677 117.203 166.677C116.841 166.677 116.448 166.316 116.086 165.955C114.017 163.994 109.81 159.721 106.398 156.355C102.789 152.824 99.1514 148.843 98.5533 148.219Z" fill="#939598"/>
<path d="M129.647 148.219H129.618L129.98 161.857C130.049 164.413 130.47 165.262 131.127 165.486C131.679 165.657 132.256 165.736 132.833 165.721C133.196 165.721 133.392 165.711 133.392 165.974C133.392 166.238 133.098 166.306 132.637 166.306C130.529 166.306 129.196 166.208 128.568 166.208C128.274 166.208 126.725 166.306 125.018 166.306C124.597 166.306 124.303 166.169 124.303 165.974C124.303 165.779 124.499 165.721 124.822 165.721C125.321 165.727 125.818 165.671 126.303 165.555C127.117 165.291 127.284 164.345 127.284 161.506L127.578 142.258C127.578 141.604 127.636 141.156 127.999 141.156C128.362 141.156 128.656 141.546 129.215 142.131C129.588 142.561 134.598 147.79 139.393 152.521C141.629 154.745 146.061 159.448 146.62 159.975H146.787L146.453 145.341C146.424 143.39 146.13 142.736 145.335 142.414C144.772 142.255 144.185 142.189 143.6 142.219L143.564 142.219C143.199 142.219 143.07 142.22 143.07 141.926C143.07 141.624 143.433 141.624 143.923 141.624C145.63 141.624 147.208 141.731 147.895 141.731C148.257 141.731 149.503 141.624 151.121 141.624C151.542 141.624 151.876 141.731 151.876 141.926C151.876 142.122 151.67 142.219 151.278 142.219C150.948 142.206 150.618 142.239 150.297 142.317C149.375 142.58 149.081 143.263 149.081 145.087L148.718 165.701C148.718 166.384 148.66 166.677 148.297 166.677C147.934 166.677 147.542 166.316 147.179 165.955C145.11 163.994 140.903 159.721 137.491 156.355C133.883 152.824 130.235 148.843 129.647 148.219Z" fill="#939598"/>
<path d="M149.861 35.7348C149.861 29.4373 148.161 23.2553 144.94 17.8341C141.719 12.413 137.094 7.95147 131.549 4.91513C126.004 1.87878 119.741 0.37898 113.414 0.572238C107.087 0.765496 100.929 2.64474 95.5808 6.01383C90.2331 9.38292 85.8923 14.1183 83.0115 19.7258C80.1307 25.3334 78.8154 31.6074 79.2031 37.8931C79.5908 44.1789 81.6671 50.2459 85.2154 55.4609C88.7636 60.6759 93.6538 64.8479 99.3754 67.5412C98.7567 66.0582 98.343 64.4985 98.1458 62.9048C93.0388 59.8665 88.892 55.4624 86.1777 50.1941C83.4634 44.9258 82.2906 39.005 82.7929 33.106C83.2952 27.207 85.4524 21.5669 89.0189 16.828C92.5854 12.089 97.4178 8.44183 102.966 6.30167C102.606 7.8368 102.605 9.43361 102.963 10.9691C103.321 12.5046 104.029 13.9379 105.031 15.1585C101.26 17.4591 98.0441 20.5583 95.6129 24.2356C95.4456 24.4821 95.3488 24.7693 95.333 25.0664C95.3172 25.3634 95.3829 25.6592 95.5232 25.922C95.6634 26.1847 95.8729 26.4045 96.1291 26.5578C96.3854 26.7112 96.6787 26.7922 96.9777 26.7923C102.658 25.6544 108.54 26.0429 114.02 27.9178C106.495 32.7377 98.7606 41.2765 95.7728 49.5706C93.3874 42.8545 93.3136 38.4506 94.5432 35.8694C96.2277 32.5909 100.507 32.9456 103.556 33.7041C103.902 33.8438 104.288 33.8544 104.641 33.7338C104.994 33.6132 105.292 33.3695 105.479 33.0478C105.666 32.726 105.73 32.3478 105.659 31.9829C105.588 31.6179 105.387 31.2908 105.093 31.0617C100.396 29.7038 94.494 29.5081 91.8873 34.5115C89.8954 38.3527 90.3381 44.9709 94.703 55.0755C95.9326 57.8035 97.2483 57.7179 97.5679 54.6474C98.2565 47.8335 104.011 40.3467 108.892 35.6981C112.153 37.2865 115.208 39.2623 117.991 41.5823C115.774 43.2254 113.771 45.1361 112.028 47.2707C108.516 51.7002 105.732 56.6548 103.777 61.9506C101.957 56.1153 99.9902 45.1666 109.556 46.6835C112.642 47.1606 112.729 44.2369 110.343 43.7965C96.0802 41.0563 98.859 57.8647 102.277 66.7582C102.405 67.0298 102.604 67.2625 102.852 67.4323C103.101 67.6022 103.39 67.7031 103.691 67.7247C103.995 67.7484 104.3 67.6878 104.571 67.5495C104.842 67.4113 105.07 67.2009 105.228 66.9417C107.157 60.2377 110.436 53.9943 114.868 48.5919C141.5 62.8436 115.544 89.9402 113.638 68.8134C113.331 65.5838 114.696 62.1218 116.897 58.562C117.05 58.2296 117.075 57.8528 116.967 57.5032C116.86 57.1535 116.627 56.8554 116.313 56.6652C115.999 56.4751 115.626 56.4063 115.264 56.4718C114.903 56.5373 114.578 56.7326 114.352 57.0206C111.892 61.0576 110.306 65.119 110.663 69.0948C113.122 96.7541 148.595 64.5685 116.983 46.3654C118.015 45.349 119.148 44.4391 120.364 43.6497C125.22 47.9611 129.126 53.2258 131.836 59.1125C133.484 62.8925 135.254 62.6846 136.471 58.6843C139.041 50.3168 135.439 37.8022 125.196 38.7075C122.061 38.9888 122.737 41.9004 125.504 41.6924C133.029 41.1052 135.34 50.5982 133.926 56.568C129.451 47.2952 120.401 38.4139 111.29 33.6429C111.892 33.1658 117.155 29.1778 117.536 29.3491C124.618 32.6175 130.908 37.3657 135.98 43.2704C139.521 47.1973 141.254 45.5703 140.689 40.6648C140.148 36.4566 138.033 29.3491 135.23 26.67C131.541 23.1591 126.696 22.9022 122.086 24.2234C119.048 25.0797 121.09 27.4896 123.721 26.8779C127.09 26.095 130.545 26.3519 133.152 28.8475C135.389 30.9883 137.148 36.9459 137.664 40.7504C128.147 30.3766 114.61 22.0458 99.9902 23.4282C102.019 20.9247 104.527 18.8458 107.368 17.3116C110.74 19.3689 114.511 20.6946 118.434 21.2017C123.598 21.9602 128.184 21.1283 128.725 19.3178C129.955 15.0607 116.208 11.8311 111.425 12.7486C111.148 13.0364 110.98 13.4113 110.951 13.8087C110.922 14.2062 111.033 14.6013 111.265 14.9261C111.532 15.279 111.923 15.5191 112.36 15.5989C112.692 15.5378 113.048 15.5011 113.392 15.4644C116.147 15.1952 126.057 17.8498 125.873 18.4737C125.725 18.9019 122.602 18.804 118.852 18.2535C116.091 17.8818 113.402 17.1025 110.872 15.9414C109.787 15.2984 108.737 14.6002 107.724 13.8496L107.306 13.4704C105.695 11.7944 105.13 8.74834 106.322 5.29857C112.719 3.62133 119.482 3.97205 125.668 6.30185C131.854 8.63165 137.155 12.8243 140.832 18.2951C144.508 23.7659 146.377 30.2419 146.177 36.8199C145.978 43.3979 143.719 49.7499 139.717 54.9899C139.723 57.1482 139.392 59.2943 138.734 61.3511C142.211 58.0726 144.981 54.1231 146.873 49.7441C148.765 45.365 149.74 40.6482 149.738 35.8816L149.861 35.7348Z" fill="#939598"/>
</svg>
